HIERARCHY
ROOT Hips
{
  OFFSET 5.84602e-005 68.8428 3.50346
  CHANNELS 6 Xposition Yposition Zposition Zrotation Xrotation Yrotation
  JOINT Spine
  {
    OFFSET 0 8.597 -4.6522
    CHANNELS 3 Zrotation Xrotation Yrotation
    JOINT Spine1
    {
      OFFSET 0 7.8454 0.4098
      CHANNELS 3 Zrotation Xrotation Yrotation
      JOINT Spine2
      {
        OFFSET 0 9.7078 -2.1609
        CHANNELS 3 Zrotation Xrotation Yrotation
        JOINT Neck
        {
          OFFSET 0 21.8761 -0.4549
          CHANNELS 3 Zrotation Xrotation Yrotation
          JOINT Head
          {
            OFFSET 0 12.3537 3.3602
            CHANNELS 3 Zrotation Xrotation Yrotation
            End Site
            {
              OFFSET 0.0001 18.9506 0.5657
            }
          }
        }
        JOINT LeftShoulder
        {
          OFFSET 2.2086 21.1115 7.2329
          CHANNELS 3 Zrotation Xrotation Yrotation
          JOINT LeftArm
          {
            OFFSET 13.1193 3.0282 -4.8998
            CHANNELS 3 Zrotation Xrotation Yrotation
            JOINT LeftForeArm
            {
              OFFSET 27.4081 -0.0973053 -0.2375
              CHANNELS 3 Zrotation Xrotation Yrotation
              JOINT LeftHand
              {
                OFFSET 22.8641 0.0662994 -0.1369
                CHANNELS 3 Zrotation Xrotation Yrotation
                JOINT LeftHandIndex1
                {
                  OFFSET 8.8614 0.775009 2.4612
                  CHANNELS 3 Zrotation Xrotation Yrotation
                  JOINT LeftHandIndex2
                  {
                    OFFSET 3.3146 -0.808304 0.5841
                    CHANNELS 3 Zrotation Xrotation Yrotation
                    JOINT LeftHandIndex3
                    {
                      OFFSET 2.2628 -0.552002 0.3989
                      CHANNELS 3 Zrotation Xrotation Yrotation
                      End Site
                      {
                        OFFSET 1.6102 -0.4807 0.2612
                      }
                    }
                  }
                }
                JOINT LeftHandMiddle1
                {
                  OFFSET 8.9937 0.895004 0.2143
                  CHANNELS 3 Zrotation Xrotation Yrotation
                  JOINT LeftHandMiddle2
                  {
                    OFFSET 4.0984 0.0113983 -0.0242
                    CHANNELS 3 Zrotation Xrotation Yrotation
                    JOINT LeftHandMiddle3
                    {
                      OFFSET 2.2716 0.00689697 -0.0138001
                      CHANNELS 3 Zrotation Xrotation Yrotation
                      End Site
                      {
                        OFFSET 2.0404 -0.1441 0.0027
                      }
                    }
                  }
                }
                JOINT LeftHandRing1
                {
                  OFFSET 8.5234 0.597198 -2.0164
                  CHANNELS 3 Zrotation Xrotation Yrotation
                  JOINT LeftHandRing2
                  {
                    OFFSET 3.7188 -0.188293 -0.2328
                    CHANNELS 3 Zrotation Xrotation Yrotation
                    JOINT LeftHandRing3
                    {
                      OFFSET 2.1191 -0.106598 -0.1332
                      CHANNELS 3 Zrotation Xrotation Yrotation
                      End Site
                      {
                        OFFSET 1.8737 -0.2304 -0.0886
                      }
                    }
                  }
                }
                JOINT LeftHandPinky1
                {
                  OFFSET 7.9094 -0.601089 -3.4825
                  CHANNELS 3 Zrotation Xrotation Yrotation
                  JOINT LeftHandPinky2
                  {
                    OFFSET 2.2874 -0.477005 -0.6314
                    CHANNELS 3 Zrotation Xrotation Yrotation
                    JOINT LeftHandPinky3
                    {
                      OFFSET 1.6774 -0.349396 -0.4633
                      CHANNELS 3 Zrotation Xrotation Yrotation
                      End Site
                      {
                        OFFSET 1.4888 -0.4091 -0.3416
                      }
                    }
                  }
                }
                JOINT LeftHandThumb1
                {
                  OFFSET 1.833 -1.3875 1.3896
                  CHANNELS 3 Zrotation Xrotation Yrotation
                  JOINT LeftHandThumb2
                  {
                    OFFSET 3.4129 -1.121 2.5732
                    CHANNELS 3 Zrotation Xrotation Yrotation
                    JOINT LeftHandThumb3
                    {
                      OFFSET 2.2474 -0.804199 1.6192
                      CHANNELS 3 Zrotation Xrotation Yrotation
                      End Site
                      {
                        OFFSET 1.6527 -0.5689 1.1317
                      }
                    }
                  }
                }
              }
            }
          }
        }
        JOINT RightShoulder
        {
          OFFSET -2.2086 21.1115 7.2329
          CHANNELS 3 Zrotation Xrotation Yrotation
          JOINT RightArm
          {
            OFFSET -13.1216 3.0287 -4.9007
            CHANNELS 3 Zrotation Xrotation Yrotation
            JOINT RightForeArm
            {
              OFFSET -27.4081 -0.0973053 -0.2375
              CHANNELS 3 Zrotation Xrotation Yrotation
              JOINT RightHand
              {
                OFFSET -22.8641 0.0664063 -0.1369
                CHANNELS 3 Zrotation Xrotation Yrotation
                JOINT RightHandIndex1
                {
                  OFFSET -8.8614 0.774994 2.4612
                  CHANNELS 3 Zrotation Xrotation Yrotation
                  JOINT RightHandIndex2
                  {
                    OFFSET -3.3146 -0.808304 0.5841
                    CHANNELS 3 Zrotation Xrotation Yrotation
                    JOINT RightHandIndex3
                    {
                      OFFSET -2.2628 -0.552002 0.3989
                      CHANNELS 3 Zrotation Xrotation Yrotation
                      End Site
                      {
                        OFFSET -1.6102 -0.4807 0.2612
                      }
                    }
                  }
                }
                JOINT RightHandMiddle1
                {
                  OFFSET -8.9937 0.894989 0.2143
                  CHANNELS 3 Zrotation Xrotation Yrotation
                  JOINT RightHandMiddle2
                  {
                    OFFSET -4.0984 0.0113983 -0.0242
                    CHANNELS 3 Zrotation Xrotation Yrotation
                    JOINT RightHandMiddle3
                    {
                      OFFSET -2.2716 0.00691223 -0.0138001
                      CHANNELS 3 Zrotation Xrotation Yrotation
                      End Site
                      {
                        OFFSET -2.0404 -0.1441 0.0027
                      }
                    }
                  }
                }
                JOINT RightHandRing1
                {
                  OFFSET -8.5234 0.597198 -2.0164
                  CHANNELS 3 Zrotation Xrotation Yrotation
                  JOINT RightHandRing2
                  {
                    OFFSET -3.7188 -0.188309 -0.2328
                    CHANNELS 3 Zrotation Xrotation Yrotation
                    JOINT RightHandRing3
                    {
                      OFFSET -2.1191 -0.106598 -0.1332
                      CHANNELS 3 Zrotation Xrotation Yrotation
                      End Site
                      {
                        OFFSET -1.8737 -0.2304 -0.0886
                      }
                    }
                  }
                }
                JOINT RightHandPinky1
                {
                  OFFSET -7.9094 -0.601105 -3.4825
                  CHANNELS 3 Zrotation Xrotation Yrotation
                  JOINT RightHandPinky2
                  {
                    OFFSET -2.2874 -0.477005 -0.6314
                    CHANNELS 3 Zrotation Xrotation Yrotation
                    JOINT RightHandPinky3
                    {
                      OFFSET -1.6774 -0.349396 -0.4633
                      CHANNELS 3 Zrotation Xrotation Yrotation
                      End Site
                      {
                        OFFSET -1.4888 -0.4091 -0.3416
                      }
                    }
                  }
                }
                JOINT RightHandThumb1
                {
                  OFFSET -1.833 -1.38751 1.3896
                  CHANNELS 3 Zrotation Xrotation Yrotation
                  JOINT RightHandThumb2
                  {
                    OFFSET -3.41299 -1.12099 2.5732
                    CHANNELS 3 Zrotation Xrotation Yrotation
                    JOINT RightHandThumb3
                    {
                      OFFSET -2.24741 -0.804108 1.6192
                      CHANNELS 3 Zrotation Xrotation Yrotation
                      End Site
                      {
                        OFFSET -1.6527 -0.5689 1.1317
                      }
                    }
                  }
                }
              }
            }
          }
        }
      }
    }
  }
  JOINT RightUpLeg
  {
    OFFSET -9.1966 3.8861 -0.7581
    CHANNELS 3 Zrotation Xrotation Yrotation
    JOINT RightLeg
    {
      OFFSET -0.7359 -41.0265 0
      CHANNELS 3 Zrotation Xrotation Yrotation
      JOINT RightFoot
      {
        OFFSET 0 -40.2855 0
        CHANNELS 3 Zrotation Xrotation Yrotation
        JOINT RightToeBase
        {
          OFFSET 0 -5.6122 11.7359
          CHANNELS 3 Zrotation Xrotation Yrotation
          End Site
          {
            OFFSET 0 0 7.8731
          }
        }
      }
    }
  }
  JOINT LeftUpLeg
  {
    OFFSET 9.1965 3.8864 -0.7581
    CHANNELS 3 Zrotation Xrotation Yrotation
    JOINT LeftLeg
    {
      OFFSET 0.7359 -41.0268 0
      CHANNELS 3 Zrotation Xrotation Yrotation
      JOINT LeftFoot
      {
        OFFSET 0 -40.2855 0
        CHANNELS 3 Zrotation Xrotation Yrotation
        JOINT LeftToeBase
        {
          OFFSET 0 -5.6122 11.7359
          CHANNELS 3 Zrotation Xrotation Yrotation
          End Site
          {
            OFFSET 0 0 7.8731
          }
        }
      }
    }
  }
}
MOTION
Frames:	5
Frame Time:	0.0333333
5.84602e-005 68.8428 3.50346 0 0 -0 0 0 -0 0 0 -0 0 0 -0 0 0 -0 0 0 -0 0 0 -0 0 0 -0 0 0 -0 0 0 -0 0 0 -0 0 0 -0 0 0 -0 0 0 -0 -0.0146107 -8.87603e-005 -2.63497e-007 2.99804e-018 -2.42657e-020 -1.42182e-022 0 0 -0 -0.0187562 -0.001176 5.858e-005 5.06224e-018 3.88251e-019 1.21329e-020 0 0 -0 -0.012269 -0.00324817 0.000675346 -1.74678e-018 3.88251e-019 -0 0 0 -0 0 0 -0 0 0 -0 0 0 -0 0 0 -0 0 0 -0 0 0 -0 0 0 -0 0 0 -0 0 0 -0 0 0 -0 0.0149955 -9.10982e-005 2.64101e-007 -9.69331e-018 1.21329e-020 -4.7394e-023 0 0 -0 0.0189956 -0.00119102 -5.96516e-005 -5.41541e-019 0 2.42657e-020 0 0 -0 0.0122698 -0.00324857 -0.000673756 -2.00796e-019 0 -1.94126e-019 0 0 -0 0 0 -0 0 0 -0 3.39842 1.33031 -0.0637918 -5.65207e-008 0.834868 -0.000436188 -3.39935 -2.16518 -0.0642563 -8.89002e-024 -1.18485e-023 -1.48106e-024 -3.39844 1.35642 0.0640283 -3.18788e-007 0.782166 -0.000588827 3.39931 -2.13858 0.0634662 1.1399e-023 0 -0 
-0.0143677 20.2577 7.23497 37.1666 -66.5989 0.142228 -6.97335 2.81245 -2.50516 -13.8445 5.90616 -4.65863 -13.8445 5.90615 -4.65862 -20.1603 -0.482898 5.62685 -0.816592 -1.34854 21.6635 -13.003 10.3657 -17.834 10.6483 -29.0344 23.8857 5.84725 1.82871 -29.4236 -13.3398 -42.6055 -20.3297 -1.02817e-006 -7.40493e-008 4.32015e-006 7.31346e-007 1.09855e-006 -1.06153e-006 -1.02817e-006 -7.40493e-008 4.32015e-006 -1.02817e-006 -7.40493e-008 4.32015e-006 -0.0145602 -8.80948e-005 -1.11948e-005 -1.02792e-006 -7.45968e-008 4.32014e-006 -1.02817e-006 -7.40493e-008 4.32015e-006 -0.018757 -0.00117599 5.24035e-005 -1.02781e-006 -7.47365e-008 4.32015e-006 -1.02817e-006 -7.40493e-008 4.32015e-006 -0.0123371 -0.00326972 0.000680366 -1.02784e-006 -7.44541e-008 4.32016e-006 -1.02817e-006 -7.40493e-008 4.32015e-006 7.31346e-007 1.09855e-006 -1.06153e-006 -1.02817e-006 -7.40493e-008 4.32015e-006 0.866856 2.86615 -24.8009 0.806695 24.6213 21.0688 -35.594 -21.3173 33.3565 4.25438 7.91786 2.21572 2.78299e-015 0 1.59028e-015 3.97569e-015 3.18055e-015 1.59028e-015 1.59028e-015 0 1.59028e-015 2.78299e-015 0 1.59028e-015 0.0150725 -9.15785e-005 -3.56664e-007 1.98785e-015 1.59028e-015 -0 2.78299e-015 0 1.59028e-015 0.0190087 -0.00119269 -5.86304e-005 -1.59028e-015 -1.59028e-015 -0 2.78299e-015 0 1.59028e-015 0.0122649 -0.00324794 -0.00067251 3.97569e-016 -1.59028e-015 -1.59028e-015 2.78299e-015 0 1.59028e-015 3.97569e-015 3.18055e-015 1.59028e-015 1.59028e-015 0 1.59028e-015 -32.9772 -49.7119 -30.1924 -3.95 55.1349 2.04716 8.63265 6.95803 -2.37968 -9.15592e-006 -5.6244e-007 2.40574e-006 41.1968 -60.0538 73.8257 -5.15409 1.07742e-005 0.555256 8.05096 7.64452 -6.36724 -3.87539e-007 -1.82547e-007 1.63601e-006 
-3.00791 -2.52607 6.399 -124.609 -83.0866 -178.301 -9.98195 3.94109 -3.73463 -19.7662 8.46431 -6.75309 -19.7662 8.4643 -6.7531 -29.1247 -0.881171 8.08986 -0.783156 -1.92303 31.4363 -16.7448 14.2101 -26.2861 24.1402 -37.4075 39.1268 9.06115 2.17393 -43.1218 -36.3767 -57.0872 -42.3765 -8.80566e-008 -1.32674e-007 -2.46529e-007 1.2408e-007 1.8695e-007 3.47382e-007 -1.00064e-007 -1.50766e-007 -2.80147e-007 -8.80566e-008 -1.32674e-007 -2.46529e-007 -0.0145988 -8.6175e-005 -2.72451e-006 3.2016e-006 1.49481e-006 -2.34275e-006 -8.80566e-008 -1.32674e-007 -2.46529e-007 -0.0187598 -0.00117578 5.81126e-005 -1.00067e-007 -1.5072e-007 -2.8017e-007 -8.80566e-008 -1.32674e-007 -2.46529e-007 -0.0122656 -0.00324321 0.000672419 3.20185e-006 1.49433e-006 -2.34278e-006 -8.80566e-008 -1.32674e-007 -2.46529e-007 1.2408e-007 1.8695e-007 3.47382e-007 -1.00064e-007 -1.50766e-007 -2.80147e-007 2.09571 3.73053 -35.9203 -5.49509 32.9849 33.6008 -43.7217 -24.8282 50.6848 5.6483 11.242 3.27887 -2.38542e-015 -1.59028e-015 -0 -1.50493e-007 -1.1183e-007 2.11007e-007 -2.71257e-007 5.29522e-008 -1.87652e-007 -2.38542e-015 -1.59028e-015 -0 0.0150127 -9.15345e-005 2.20199e-006 -3.97569e-016 -3.18055e-015 9.54166e-015 -2.38542e-015 -1.59028e-015 -0 0.0189997 -0.00119052 -5.88925e-005 8.82781e-032 -1.59028e-015 3.18055e-015 -2.38542e-015 -1.59028e-015 -0 0.0122502 -0.00324393 -0.000674491 3.97569e-016 0 -0 -2.38542e-015 -1.59028e-015 -0 -1.50493e-007 -1.1183e-007 2.11007e-007 -2.71257e-007 5.29522e-008 -1.87652e-007 -80.0818 -60.7995 -68.479 -16.8892 78.6933 13.2406 14.3943 11.732 -3.54203 -7.95139e-016 1.98785e-016 1.61513e-016 84.1882 -41.0146 114.544 -7.46694 3.6901e-006 0.88624 11.1008 11.2645 -9.80374 -7.99449e-007 -8.4039e-008 3.26265e-006 
-2.38382 2.70903 6.69045 -90.0337 -88.781 -140.033 -9.26091 3.99484 -3.40715 -18.3426 8.48115 -6.14835 -18.3426 8.48116 -6.14835 -26.9692 -1.20486 7.38852 -0.640277 -2.09999 29.2998 -16.021 13.4241 -24.3775 19.4996 -34.5524 34.8143 8.36121 1.98586 -41.0582 -29.6461 -54.4688 -36.0554 1.06498e-006 -8.66216e-007 -1.87277e-008 0 6.36111e-015 -0 -1.06498e-006 8.66216e-007 1.87277e-008 1.06498e-006 -8.66216e-007 -1.87277e-008 -0.0146432 -8.50765e-005 -1.24112e-006 -1.06297e-006 8.66225e-007 1.88394e-008 1.06498e-006 -8.66216e-007 -1.87277e-008 -0.0187513 -0.00117474 5.92659e-005 -1.06241e-006 8.66374e-007 1.88723e-008 1.06498e-006 -8.66216e-007 -1.87277e-008 -0.0122361 -0.0032349 0.000669837 1.59028e-015 0 -3.18055e-015 1.06498e-006 -8.66216e-007 -1.87277e-008 0 6.36111e-015 -0 -1.06498e-006 8.66216e-007 1.87277e-008 1.94041 3.63004 -33.2693 -3.70691 31.3735 30.5881 -41.9895 -24.3263 46.4891 4.64484 9.99405 3.11009 8.58342e-008 1.08749e-008 -5.7523e-009 8.58342e-008 1.08749e-008 -5.75229e-009 7.26289e-008 9.20188e-009 -4.86733e-009 8.58342e-008 1.08749e-008 -5.7523e-009 0.0149866 -9.01553e-005 -2.17093e-006 7.26289e-008 9.20124e-009 -4.86859e-009 8.58342e-008 1.08749e-008 -5.7523e-009 0.0189837 -0.00119039 -6.18509e-005 7.26289e-008 9.20111e-009 -4.8696e-009 8.58342e-008 1.08749e-008 -5.7523e-009 0.0122773 -0.00325047 -0.000678226 7.26287e-008 9.20177e-009 -4.87038e-009 8.58342e-008 1.08749e-008 -5.7523e-009 8.58342e-008 1.08749e-008 -5.75229e-009 7.26289e-008 9.20188e-009 -4.86733e-009 -65.2065 -59.5605 -56.1434 -10.7607 73.5031 7.63162 13.2667 10.5091 -3.48382 7.95139e-016 7.95139e-016 1.06847e-015 78.5736 -46.6367 110.536 -6.9534 0.10383 0.815233 10.5182 10.3144 -10.0218 5.3087e-007 -2.37655e-007 1.80126e-006 
-2.4843 2.70831 6.65011 -90.0385 -87.9688 -140.038 -9.21267 4.23187 -3.36616 -18.2433 8.94323 -6.03443 -18.2433 8.94325 -6.03442 -26.8332 -1.543 7.26334 -0.501713 -2.33688 29.3299 -16.021 13.4241 -24.3775 18.5852 -33.4294 34.3382 8.3882 1.86758 -41.8618 -29.6461 -54.4688 -36.0554 -3.18055e-015 0 -3.18055e-015 -2.23724e-006 1.39061e-006 1.05255e-007 -1.59028e-015 -6.36111e-015 3.18055e-015 -3.18055e-015 0 -3.18055e-015 -0.0145993 -8.58529e-005 -1.42539e-006 -6.36111e-015 3.18055e-015 -3.18055e-015 -3.18055e-015 0 -3.18055e-015 -0.0187986 -0.00117654 5.96183e-005 -8.40123e-007 7.70992e-007 -1.10568e-007 -3.18055e-015 0 -3.18055e-015 -0.012264 -0.00324521 0.000677118 -3.18055e-015 3.18055e-015 9.54166e-015 -3.18055e-015 0 -3.18055e-015 -2.23724e-006 1.39061e-006 1.05255e-007 -1.59028e-015 -6.36111e-015 3.18055e-015 2.06499 3.67571 -33.1239 -3.70691 31.3735 30.5881 -41.8286 -24.1684 46.2439 4.06904 9.5756 3.16236 9.90416e-008 1.25123e-008 -6.67264e-009 2.64111e-008 3.33662e-009 -1.77938e-009 5.94249e-008 7.50741e-009 -4.00358e-009 9.90416e-008 1.25123e-008 -6.67264e-009 0.015005 -9.15044e-005 -1.89227e-006 5.94249e-008 7.50689e-009 -4.00461e-009 9.90416e-008 1.25123e-008 -6.67264e-009 0.0189772 -0.0011907 -5.70514e-005 5.94249e-008 7.50677e-009 -4.00544e-009 9.90416e-008 1.25123e-008 -6.67264e-009 0.0122747 -0.0032491 -0.00067384 5.94248e-008 7.50733e-009 -4.00608e-009 9.90416e-008 1.25123e-008 -6.67264e-009 2.64111e-008 3.33662e-009 -1.77938e-009 5.94249e-008 7.50741e-009 -4.00358e-009 -63.3225 -59.3122 -54.5379 -10.5144 73.3489 7.41106 13.3712 10.4695 -3.65863 1.19271e-015 2.38542e-015 1.51573e-015 78.567 -46.5406 110.647 -6.95339 -1.50351e-006 0.806267 10.6387 10.2593 -10.8418 -4.13375e-007 7.3943e-008 -7.32695e-008 
